<svg xmlns="http://www.w3.org/2000/svg" xmlns:xlink="http://www.w3.org/1999/xlink" viewBox="0 0 100 100">
  <defs>
    <style>
      .cls-1 {
        fill: black;
      }

      .cls-2 {
        clip-path: url(#clip-path);
      }
    </style>
    <clipPath id="clip-path">
      <rect id="Rectangle_9" data-name="Rectangle 9" class="cls-1" width="100" height="100"/>
    </clipPath>
  </defs>
  <g id="_800_migration_to_hardware_sheet" data-name="800_migration_to_hardware_sheet" transform="translate(0 141.73)">
    <g id="Group_20" data-name="Group 20" transform="translate(0 -141.73)">
      <g id="Group_19" data-name="Group 19" class="cls-2">
        <path id="Path_60" data-name="Path 60" class="cls-1" d="M78.373-39.337h5.485l-5.485,5.485Zm7.884-.734V-66.048a.682.682,0,0,0-.722-.723H43.686a.682.682,0,0,0-.722.723v33.91a.683.683,0,0,0,.722.723H61v-1.441H44.408V-65.326h40.4v24.533H77.6a.681.681,0,0,0-.718.722v7.216H61v1.441H77.6a.657.657,0,0,0,.508-.215l7.938-7.938c.071-.074.071-.144.144-.214v-.074a.265.265,0,0,0,.071-.214" transform="translate(-12.65 119.66)"/>
        <path id="Path_61" data-name="Path 61" class="cls-1" d="M49.3-38.245l4.39-6.7-3.979-6.143h3.032l2.576,4.128,2.524-4.128h3.006l-4,6.24,4.39,6.608H58.121l-2.848-4.443-2.857,4.443Z" transform="translate(-14.517 115.043)"/>
        <path id="Path_62" data-name="Path 62" class="cls-1" d="M68.221-38.2V-50.943h2.594v10.578h6.45V-38.2Z" transform="translate(-20.087 114.999)"/>
        <path id="Path_63" data-name="Path 63" class="cls-1" d="M82.728-42.516l2.524-.245a3.079,3.079,0,0,0,.925,1.867,2.8,2.8,0,0,0,1.88.6,2.889,2.889,0,0,0,1.889-.53,1.577,1.577,0,0,0,.635-1.24,1.17,1.17,0,0,0-.267-.776,2.137,2.137,0,0,0-.933-.556q-.456-.158-2.077-.561a7.045,7.045,0,0,1-2.927-1.271,3.343,3.343,0,0,1-1.183-2.585,3.3,3.3,0,0,1,.556-1.836,3.484,3.484,0,0,1,1.6-1.3,6.428,6.428,0,0,1,2.528-.447,5.423,5.423,0,0,1,3.641,1.06,3.743,3.743,0,0,1,1.284,2.831l-2.594.114a2.2,2.2,0,0,0-.714-1.424,2.615,2.615,0,0,0-1.643-.434,2.964,2.964,0,0,0-1.77.464.936.936,0,0,0-.412.8.987.987,0,0,0,.386.78,6.819,6.819,0,0,0,2.384.859,12.579,12.579,0,0,1,2.8.925,3.609,3.609,0,0,1,1.42,1.306,3.819,3.819,0,0,1,.513,2.046,3.783,3.783,0,0,1-.613,2.068,3.676,3.676,0,0,1-1.735,1.433,7.276,7.276,0,0,1-2.8.469,5.565,5.565,0,0,1-3.742-1.126A4.9,4.9,0,0,1,82.728-42.516Z" transform="translate(-24.358 115.135)"/>
        <path id="Path_64" data-name="Path 64" class="cls-1" d="M27.544-127.052a.926.926,0,0,1,.806.509L38.214-110.1c.24.442.168.492.141.687a1,1,0,0,1-1.049.916H17.071a1.1,1.1,0,0,1-.9-1.623l10.371-16.442A.958.958,0,0,1,27.544-127.052ZM18.99-110.615H35.438L27.42-123.98Z" transform="translate(-4.722 137.409)"/>
        <path id="Path_65" data-name="Path 65" class="cls-1" d="M78.5-127.093a1.109,1.109,0,0,1,.975,1.055V-109.6a1.026,1.026,0,0,1-1.058,1.058H62.233a.865.865,0,0,1-.4-.08,1.1,1.1,0,0,1-.653-.978v-16.442a.861.861,0,0,1,.081-.4,1.1,1.1,0,0,1,.978-.653C67.657-127.1,73.085-127.306,78.5-127.093ZM63.292-110.655H77.364V-124.98H63.292Z" transform="translate(-18.012 137.449)"/>
        <path id="Path_66" data-name="Path 66" class="cls-1" d="M108.972-127.057c6.136.117,11.12,7.334,8.243,13.3-2.513,5.211-10.425,6.83-14.764,2.693-5.094-4.856-2.2-15.832,6.282-15.994Zm-.212,2.117c-4.721.09-8.58,5.667-6.364,10.265,2.281,4.731,10.4,5.218,12.913,0,2.05-4.252-1.137-10.165-6.364-10.265Z" transform="translate(-29.423 137.41)"/>
        <path id="Path_67" data-name="Path 67" class="cls-1" d="M41.235-84.081,31.46-93.856a1.392,1.392,0,0,1,1.121-2.4,1.519,1.519,0,0,1,.875.408l9.774,9.774.014-1.915a1.1,1.1,0,0,1,.109-.533,1.441,1.441,0,0,1,1.34-.868c1.9.087,1.357,3.831,1.336,6.708-.05,1.906-3.813,1.419-6.69,1.441-1.427-.017-2-2.769-.021-2.822Z" transform="translate(-9.138 128.343)"/>
        <path id="Path_68" data-name="Path 68" class="cls-1" d="M97.4-86.219,107.177-96a1.224,1.224,0,0,1,1.12-.408,1.1,1.1,0,0,1,.931.468A1.389,1.389,0,0,1,109.173-94L99.4-84.226l1.915.014a.953.953,0,0,1,.727.208,1.461,1.461,0,0,1-.693,2.613c-1.781.022-3.561-.024-5.342-.037-1.906-.05-1.419-3.813-1.441-6.69a1.387,1.387,0,0,1,1.482-1.42,1.463,1.463,0,0,1,1.34,1.4Z" transform="translate(-27.831 128.386)"/>
        <path id="Path_69" data-name="Path 69" class="cls-1" d="M70.617-82.462V-96.287a1.147,1.147,0,0,1,.081-.473c.247-.695,1.27-.941,1.426-.935a1.371,1.371,0,0,1,1.315,1.408v13.824l1.411-1.39a1.242,1.242,0,0,1,1.018-.36,1.456,1.456,0,0,1,.961,2.367c-1.241,1.282-2.54,2.506-3.811,3.759-1.393,1.312-3.7-1.695-5.749-3.712-.966-1,.391-3.506,1.981-2.01Z" transform="translate(-19.711 128.765)"/>
      </g>
    </g>
  </g>
</svg>
