<svg xmlns="http://www.w3.org/2000/svg" xmlns:xlink="http://www.w3.org/1999/xlink" viewBox="0 0 100 100">
  <defs>
    <style>
      .cls-1 {
        fill: black;
      }

      .cls-2 {
        clip-path: url(#clip-path);
      }
    </style>
    <clipPath id="clip-path">
      <rect id="Rectangle_10" data-name="Rectangle 10" class="cls-1" width="100" height="100"/>
    </clipPath>
  </defs>
  <g id="_800_update_migrator" data-name="800_update_migrator" transform="translate(0 141.73)">
    <g id="Group_22" data-name="Group 22" transform="translate(0 -141.73)">
      <g id="Group_21" data-name="Group 21" class="cls-2">
        <path id="Path_70" data-name="Path 70" class="cls-1" d="M45.758-78.783a1.112,1.112,0,0,1,.828.511l5.437,9.061a.784.784,0,0,1,.137.717,1.022,1.022,0,0,1-1.044.886H39.963c-1.6-.052-1.212-1.083-.9-1.623l5.716-9.061A.941.941,0,0,1,45.758-78.783Zm-3.876,9.058h7.365l-3.59-5.983Z" transform="translate(-11.419 123.197)"/>
        <path id="Path_71" data-name="Path 71" class="cls-1" d="M73.893-78.8a1.1,1.1,0,0,1,1,1.057v9.061a1.1,1.1,0,0,1-1.058,1.058H64.909a1.1,1.1,0,0,1-1.058-1.058v-9.061A1.1,1.1,0,0,1,64.909-78.8C67.9-78.8,70.9-78.887,73.893-78.8Zm-7.925,9.059h6.805v-6.944H65.968Z" transform="translate(-18.8 123.213)"/>
        <path id="Path_72" data-name="Path 72" class="cls-1" d="M90.591-78.785c4.272.081,7.39,6.2,3.784,9.633-3.237,3.085-10.322.362-9.357-5.033A5.666,5.666,0,0,1,90.591-78.785Zm-.117,2.117c-2.978.057-4.946,5.183-1.266,6.688,2.519,1.03,5.94-1.973,4.365-4.869A3.473,3.473,0,0,0,90.474-76.669Z" transform="translate(-25.005 123.197)"/>
        <path id="Path_73" data-name="Path 73" class="cls-1" d="M26.2-86.45a1.109,1.109,0,0,1,.822.508l2.943,4.875,5.065-3.055c.967-.472,2.272,1.048,1.039,1.843l-5.916,3.572a1.1,1.1,0,0,1-1.453-.359l-3.49-5.781C24.357-86.365,25.522-86.483,26.2-86.45Z" transform="translate(-7.335 125.455)"/>
        <path id="Path_74" data-name="Path 74" class="cls-1" d="M58.836-112.66c13.845.19,27.235,10.4,29.183,24.864,0,0,.067.932-.607,1.229-1.517.668-1.7-2.976-2.532-5.524-5.017-15.293-25.867-23.711-40.224-14.4A27.192,27.192,0,0,0,32.8-88.159s-.248.8-.911.883c-1.4.179-1.034-2.479-.451-4.538,3.3-11.677,14.417-20.719,26.933-20.847C58.6-112.662,58.6-112.662,58.836-112.66Z" transform="translate(-9.104 133.171)"/>
        <path id="Path_75" data-name="Path 75" class="cls-1" d="M107.3-66.47a1.112,1.112,0,0,1,.866.511l3.49,5.781c.423.75.16.925-.1,1.23a1.1,1.1,0,0,1-1.715-.136L106.9-63.959,101.836-60.9c-.736.359-.889.113-1.175-.128a1.1,1.1,0,0,1,.136-1.714l5.916-3.572A.865.865,0,0,1,107.3-66.47Z" transform="translate(-29.534 119.571)"/>
        <path id="Path_76" data-name="Path 76" class="cls-1" d="M31.082-66.163c.867.2.83.577.966,1.491C33.72-53.748,43.16-44.7,54.158-42.6a26.273,26.273,0,0,0,19.088-3.562A27.191,27.191,0,0,0,85.1-64.494a1.271,1.271,0,0,1,.763-.853c.782-.217,1.444.528,1.244,1.689-2.067,11.579-11.7,21.526-23.4,23.334-15.2,2.349-31.675-8.523-33.83-24.532C29.883-64.858,29.858-66.267,31.082-66.163Z" transform="translate(-8.799 119.482)"/>
      </g>
    </g>
  </g>
</svg>
