<svg xmlns="http://www.w3.org/2000/svg" xmlns:xlink="http://www.w3.org/1999/xlink" viewBox="0 0 100 100">
  <defs>
    <style>
      .cls-1 {
        fill: #4297cb;
      }

      .cls-2 {
        clip-path: url(#clip-path);
      }
    </style>
    <clipPath id="clip-path">
      <rect id="Rectangle_11" data-name="Rectangle 11" class="cls-1" width="100" height="100"/>
    </clipPath>
  </defs>
  <g id="access_control_point__ACCP_" data-name="access_control_point_(ACCP)" transform="translate(0 141.73)">
    <g id="Group_2" data-name="Group 2" transform="translate(0 -141.73)">
      <g id="Group_1" data-name="Group 1" class="cls-2">
        <path id="Path_77" data-name="Path 77" class="cls-1" d="M84.872-64.367A6.781,6.781,0,0,1,78.1-57.6H39.865A6.775,6.775,0,0,1,33.1-64.367v-25.3a6.769,6.769,0,0,1,6.761-6.761H78.1a6.776,6.776,0,0,1,6.769,6.761ZM40.863-106.13c0-8.923,8.134-16.177,18.125-16.177S77.1-115.054,77.1-106.13v7.115H40.863Zm38.825,7.26v-7.26c0-10.352-9.289-18.769-20.7-18.769S38.28-116.482,38.28-106.13v7.26a9.363,9.363,0,0,0-7.767,9.213v25.29a9.364,9.364,0,0,0,9.352,9.352H78.1a9.364,9.364,0,0,0,9.353-9.352v-25.3a9.36,9.36,0,0,0-7.767-9.206" transform="translate(-8.984 136.774)"/>
        <path id="Path_78" data-name="Path 78" class="cls-1" d="M71.291-60.6a2.594,2.594,0,0,1-2.584,2.592A2.6,2.6,0,0,1,66.116-60.6v-7.758a2.6,2.6,0,0,1,2.591-2.592,2.593,2.593,0,0,1,2.584,2.592ZM68.707-73.546a5.191,5.191,0,0,0-5.183,5.184V-60.6a5.191,5.191,0,0,0,5.183,5.183A5.189,5.189,0,0,0,73.883-60.6v-7.758a5.189,5.189,0,0,0-5.175-5.184" transform="translate(-18.704 121.654)"/>
      </g>
    </g>
  </g>
</svg>
